<svg xmlns="http://www.w3.org/2000/svg" width="256" height="256" viewBox="0 0 256 256" fill="none">
<path d="M 2.79,50.48 C 2.79,24.11 24.2,2.7 50.57,2.7 H 204.41 C 231.38,2.7 253.69,25.01 253.69,51.98 V 205.52 C 253.69,232.16 232.1,253.3 205.46,253.3 H 49.91 C 23.9,253.3 2.79,231.61 2.79,205.1 V 50.48 Z" fill="url(#paint0_linear_111_345)"/>
<path d="M 210.22,35.18 H 132.68 V 122.89 H 220.39 V 46.11 C 220.39,39.99 215.85,35.18 210.22,35.18 Z" fill="url(#paint1_linear_111_345)" stroke="url(#paint2_linear_111_345)" stroke-width="0.75" stroke-miterlimit="10"/>
<path d="M 132.68,132.86 V 220.57 H 210.22 C 216.36,220.57 220.39,214.74 220.39,209.94 V 132.86 H 132.68 Z" fill="url(#paint3_linear_111_345)" stroke="url(#paint4_linear_111_345)" stroke-width="0.75" stroke-miterlimit="10"/>
<path d="M 45.59,35.18 C 38.99,35.18 34.95,41.25 34.95,46.11 V 122.89 H 122.66 V 35.18 H 45.59 Z" fill="url(#paint5_linear_111_345)" stroke="url(#paint6_linear_111_345)" stroke-width="0.75" stroke-miterlimit="10"/>
<path d="M 34.95,132.86 V 209.1 C 34.95,215.47 40.11,220.19 45.59,220.19 H 122.66 V 132.86 H 34.95 Z" fill="url(#paint7_linear_111_345)" stroke="url(#paint8_linear_111_345)" stroke-width="0.75" stroke-miterlimit="10"/>
<path d="M 48.21,55.31 H 109.89" stroke="#888888" stroke-width="0.75" stroke-miterlimit="10"/>
<path d="M 48.21,69.91 H 109.89" stroke="#888888" stroke-width="0.75" stroke-miterlimit="10"/>
<path d="M 48.21,84.91 H 93.87" stroke="#888888" stroke-width="0.75" stroke-miterlimit="10"/>
<path d="M 145.99,55.31 H 207.67" stroke="#888888" stroke-width="0.75" stroke-miterlimit="10"/>
<path d="M 145.99,69.91 H 207.67" stroke="#888888" stroke-width="0.75" stroke-miterlimit="10"/>
<path d="M 145.99,84.91 H 190.79" stroke="#888888" stroke-width="0.75" stroke-miterlimit="10"/>
<path d="M 48.21,149.94 H 109.89" stroke="#888888" stroke-width="0.75" stroke-miterlimit="10"/>
<path d="M 48.21,165.32 H 109.89" stroke="#888888" stroke-width="0.75" stroke-miterlimit="10"/>
<path d="M 48.21,179.53 H 93.87" stroke="#888888" stroke-width="0.75" stroke-miterlimit="10"/>
<path d="M 145.99,149.94 H 207.67" stroke="#888888" stroke-width="0.75" stroke-miterlimit="10"/>
<path d="M 145.99,165.32 H 207.67" stroke="#888888" stroke-width="0.75" stroke-miterlimit="10"/>
<path d="M 145.99,179.53 H 190.79" stroke="#888888" stroke-width="0.75" stroke-miterlimit="10"/>
<defs>
<linearGradient id="paint0_linear_111_345" x1="21.0978" y1="12.0971" x2="233.991" y2="244.45" gradientUnits="userSpaceOnUse">
<stop stop-color="#110B0B"/>
<stop offset="0.244792" stop-color="#A55900"/>
<stop offset="0.484375" stop-color="#F6B000"/>
<stop offset="0.671875" stop-color="#0060B0"/>
<stop offset="0.875" stop-color="#000061"/>
<stop offset="1" stop-color="#00003B"/>
</linearGradient>
<linearGradient id="paint1_linear_111_345" x1="138.74" y1="36.1848" x2="209.87" y2="127.579" gradientUnits="userSpaceOnUse">
<stop stop-color="#3E361C"/>
<stop offset="1" stop-color="#002A49"/>
</linearGradient>
<linearGradient id="paint2_linear_111_345" x1="176.533" y1="34.8098" x2="176.533" y2="123.261" gradientUnits="userSpaceOnUse">
<stop stop-color="#C6C6C6"/>
<stop offset="1" stop-color="#C6C6C6" stop-opacity="0.36"/>
</linearGradient>
<linearGradient id="paint3_linear_111_345" x1="138.74" y1="133.856" x2="209.87" y2="225.25" gradientUnits="userSpaceOnUse">
<stop stop-color="#002345"/>
<stop offset="1" stop-color="#0A0B2A"/>
</linearGradient>
<linearGradient id="paint4_linear_111_345" x1="176.533" y1="132.481" x2="176.533" y2="220.932" gradientUnits="userSpaceOnUse">
<stop stop-color="#C6C6C6"/>
<stop offset="1" stop-color="#C6C6C6" stop-opacity="0.36"/>
</linearGradient>
<linearGradient id="paint5_linear_111_345" x1="41.0171" y1="36.1848" x2="112.147" y2="127.579" gradientUnits="userSpaceOnUse">
<stop stop-color="#271A0D"/>
<stop offset="1" stop-color="#383114"/>
</linearGradient>
<linearGradient id="paint6_linear_111_345" x1="78.8103" y1="34.8098" x2="78.8103" y2="123.261" gradientUnits="userSpaceOnUse">
<stop stop-color="#C6C6C6"/>
<stop offset="1" stop-color="#C6C6C6" stop-opacity="0.36"/>
</linearGradient>
<linearGradient id="paint7_linear_111_345" x1="41.0171" y1="133.856" x2="112.147" y2="225.25" gradientUnits="userSpaceOnUse">
<stop stop-color="#382E08"/>
<stop offset="1" stop-color="#002E4E"/>
</linearGradient>
<linearGradient id="paint8_linear_111_345" x1="78.8103" y1="132.481" x2="78.8103" y2="220.932" gradientUnits="userSpaceOnUse">
<stop stop-color="#C6C6C6"/>
<stop offset="1" stop-color="#C6C6C6" stop-opacity="0.36"/>
</linearGradient>
</defs>
</svg>